<svg xmlns="http://www.w3.org/2000/svg" version="1.1" xmlns:xlink="http://www.w3.org/1999/xlink" xmlns:svgjs="http://svgjs.dev/svgjs" width="1440" height="560" preserveAspectRatio="none" viewBox="0 0 1440 560">
    <g mask="url(&quot;#SvgjsMask1000&quot;)" fill="none">
        <rect width="1440" height="560" x="0" y="0" fill="#0e2a47"></rect>
        <path d="M 0,261 C 57.6,226.4 172.8,96 288,88 C 403.2,80 460.8,237 576,221 C 691.2,205 748.8,11.2 864,8 C 979.2,4.8 1036.8,193 1152,205 C 1267.2,217 1382.4,95.4 1440,68L1440 560L0 560z" fill="#184a7e"></path>
        <path d="M 0,456 C 96,421.2 288,286.4 480,282 C 672,277.6 768,412.6 960,434 C 1152,455.4 1344,398 1440,389L1440 560L0 560z" fill="#2264ab"></path>
    </g>
    <defs>
        <mask id="SvgjsMask1000">
            <rect width="1440" height="560" fill="#ffffff"></rect>
        </mask>
    </defs>
</svg>