<?xml version="1.0" standalone="no"?>
<!DOCTYPE svg PUBLIC "-//W3C//DTD SVG 20010904//EN"
 "http://www.w3.org/TR/2001/REC-SVG-20010904/DTD/svg10.dtd">
<svg version="1.0" xmlns="http://www.w3.org/2000/svg"
 width="800.000000pt" height="600.000000pt" viewBox="0 0 800.000000 600.000000"
 preserveAspectRatio="xMidYMid meet">

<g transform="translate(0.000000,600.000000) scale(0.100000,-0.100000)"
fill="#000000" stroke="none">
<path d="M2820 5320 l0 -40 40 0 40 0 0 -163 c0 -183 -6 -202 -65 -213 -32 -6
-35 -9 -35 -40 0 -20 6 -37 14 -40 22 -8 99 16 124 39 49 45 52 62 52 287 l0
210 -85 0 -85 0 0 -40z"/>
<path d="M3070 5115 c0 -298 -6 -285 125 -285 131 0 125 -13 125 285 l0 245
-40 0 -40 0 -2 -227 -3 -228 -40 0 -40 0 -3 228 -2 227 -40 0 -40 0 0 -245z"/>
<path d="M3397 5353 c-4 -3 -7 -123 -7 -265 0 -226 2 -259 16 -265 25 -9 146
15 173 35 64 47 66 55 69 283 l3 209 -45 0 -45 0 -3 -200 c-3 -211 -6 -224
-53 -232 -19 -3 -20 3 -23 220 l-2 222 -39 0 c-21 0 -41 -3 -44 -7z"/>
<path d="M3730 5095 l0 -265 99 0 99 0 6 31 c3 17 6 35 6 40 0 5 -29 9 -65 9
l-65 0 0 75 0 75 44 0 c37 0 45 4 50 23 12 47 9 52 -41 52 l-48 0 0 70 0 70
61 3 61 3 -6 37 -6 37 -98 3 -97 3 0 -266z"/>
<path d="M4000 5096 l0 -266 40 0 40 0 1 183 1 182 41 -85 c37 -78 41 -93 45
-182 l4 -98 39 0 39 0 0 265 0 265 -40 0 -39 0 -3 -102 -3 -103 -42 100 -41
100 -41 3 -41 3 0 -265z"/>
<path d="M4317 5343 c-4 -3 -7 -21 -7 -40 0 -32 1 -33 40 -33 l40 0 0 -225 0
-225 40 0 40 0 0 225 0 225 38 0 c21 0 41 2 43 5 3 2 3 20 1 40 l-4 35 -112 0
c-62 0 -116 -3 -119 -7z"/>
<path d="M4600 5116 c0 -231 0 -235 23 -262 18 -20 35 -28 75 -32 66 -6 118 4
143 29 18 18 19 35 19 259 l0 240 -45 0 -45 0 0 -225 0 -225 -40 0 -40 0 0
225 0 225 -45 0 -45 0 0 -234z"/>
<path d="M4951 5324 c-17 -22 -21 -41 -21 -104 0 -87 13 -112 78 -151 73 -44
82 -57 82 -121 l0 -59 -37 3 -38 3 -3 53 -3 52 -35 0 -34 0 0 -68 c0 -90 15
-105 109 -110 123 -7 148 23 139 164 -5 73 -10 80 -118 158 -43 31 -45 34 -48
90 l-3 57 38 -3 38 -3 3 -51 3 -51 39 11 c39 10 40 11 40 57 0 32 -6 55 -21
73 -19 24 -26 26 -104 26 -78 0 -85 -2 -104 -26z"/>
<path d="M2800 4200 l0 -210 475 0 476 0 -3 -847 c-3 -774 -5 -853 -21 -908
-66 -225 -191 -330 -637 -535 -85 -39 -159 -75 -163 -80 -17 -16 124 -268 211
-379 l19 -23 156 72 c334 155 519 270 663 414 87 87 107 114 147 196 52 106
79 200 96 335 7 60 11 434 11 1133 l0 1042 -715 0 -715 0 0 -210z"/>
<path d="M4690 3326 c0 -916 -2 -1103 -15 -1203 -42 -321 -141 -531 -342 -724
-149 -143 -324 -255 -645 -415 -87 -43 -158 -82 -158 -85 0 -11 193 -124 333
-195 l127 -65 130 66 c610 311 908 657 1015 1179 40 193 46 417 43 1521 l-3
1000 -242 3 -243 2 0 -1084z"/>
</g>
</svg>
